<svg width="54" height="64" viewBox="0 0 54 64" fill="none" xmlns="http://www.w3.org/2000/svg">
<path d="M53.3691 19.91C53.6894 19.6964 53.7961 19.2694 53.6894 18.9492V18.8425C52.9421 15.2127 50.9137 12.01 47.9246 9.76815C47.6043 9.55459 47.284 9.44788 46.8571 9.66143C43.1206 10.9425 40.1315 10.9425 37.7829 9.55472C34.0464 7.31285 33.4058 1.97502 33.4058 1.97502C33.4058 1.54804 33.0856 1.22777 32.6586 1.12094C29.0289 -0.373686 24.9722 -0.373686 21.2357 1.12094C20.9154 1.22765 20.5952 1.54792 20.5952 1.97502C20.5952 1.97502 19.9546 7.20601 16.2181 9.55472C13.8696 11.0493 10.7736 11.0493 7.03711 9.66143C6.71684 9.44788 6.39657 9.55472 6.07631 9.76815C3.08719 12.01 1.05887 15.2127 0.3115 18.8423V18.9491C0.3115 19.2693 0.418214 19.6963 0.631767 19.9099C3.83444 23.1125 5.64933 27.9165 5.64933 33.0408C5.64933 38.1651 3.83444 42.9691 0.631767 46.1718C0.3115 46.3853 0.204786 46.8123 0.3115 47.1326V47.2393C1.05875 50.8689 3.08719 54.0716 6.07631 56.3135C6.39657 56.527 6.71684 56.6337 7.03711 56.527C7.67764 56.3135 21.1289 51.723 26.0396 63.3593C26.1463 63.7863 26.5734 63.9999 27.0004 63.9999C27.4274 63.9999 27.8545 63.7863 27.9612 63.2526C32.9787 51.723 46.43 56.2067 46.9637 56.4203C47.2839 56.6339 47.6042 56.527 47.9245 56.3136C50.9136 54.0717 52.942 50.869 53.6893 47.2394V47.1327C53.6893 46.8124 53.5826 46.3854 53.369 46.1719C46.7502 39.553 46.7502 26.5287 53.3691 19.91ZM47.0705 54.1786C44.2948 53.4313 32.6585 50.7623 27.0004 60.4772C23.5842 54.7124 18.0329 53.3246 13.5492 53.3246C10.56 53.3246 7.99791 53.9651 6.93027 54.2854C4.79511 52.4705 3.19378 50.0152 2.55325 47.2395C5.86263 43.7166 7.78423 38.5923 7.78423 33.0411C7.78423 27.4898 5.86263 22.3655 2.55325 18.7357C3.19378 15.9601 4.79511 13.5048 6.93027 11.6899C11.0937 13.0777 14.6167 12.9709 17.3924 11.2629C21.1289 8.91406 22.3032 4.43032 22.6235 2.72227C25.5059 1.76147 28.495 1.76147 31.3774 2.72227C31.6977 4.43032 32.872 8.91406 36.6084 11.2628C39.3841 12.9708 42.907 13.0777 47.0705 11.6897C49.3124 13.5046 50.807 15.9599 51.4475 18.7356C44.5084 26.2085 44.5084 39.6597 51.4475 47.1327C50.807 49.9082 49.3124 52.3637 47.0705 54.1786Z" fill="white"/>
<path d="M48.7787 18.8423C48.9923 18.5221 48.9923 18.0951 48.8854 17.7748C48.4584 16.7073 47.8179 15.6397 47.0705 14.7857C46.7503 14.4654 46.43 14.3587 46.003 14.4654C44.6152 14.7857 43.2273 14.9993 41.9463 14.9993C33.6193 14.9993 30.6302 8.16694 29.7761 5.28453C29.6694 4.85755 29.3491 4.644 28.922 4.53729C27.641 4.32373 26.3599 4.32373 25.0788 4.53729C24.6518 4.644 24.3316 4.85755 24.2247 5.28453C23.2639 8.16694 20.2748 14.9993 12.0546 14.9993C10.7735 14.9993 9.38573 14.7857 7.99782 14.4654C7.57084 14.3587 7.14373 14.4654 6.9303 14.7857C6.18306 15.6398 5.54252 16.7073 5.11541 17.7748C4.90186 18.0951 5.0087 18.5221 5.22213 18.8423C11.3072 26.849 11.3072 39.3394 5.22213 47.3461C5.00858 47.6664 5.00858 48.0934 5.11541 48.4136C5.5424 49.588 6.18293 50.5488 7.03702 51.5096C7.35728 51.8298 7.67755 51.9366 8.10453 51.8298C9.91942 51.4029 11.7342 51.1893 13.5491 51.1893C18.6733 51.1893 23.0504 52.8974 26.253 56.1C26.4666 56.3136 26.68 56.4203 27.0003 56.4203C27.3206 56.4203 27.5341 56.3136 27.7475 56.1C30.9502 52.8974 35.3272 51.1893 40.4515 51.1893C42.2664 51.1893 44.0812 51.4029 45.896 51.8298C46.323 51.9366 46.7501 51.8298 46.9636 51.5096C47.8177 50.5488 48.4582 49.588 48.8852 48.4136C49.0987 48.0934 48.9919 47.6664 48.7785 47.3461C42.6936 39.3394 42.6936 26.849 48.7787 18.8423ZM46.7503 48.0935C46.43 48.6273 46.1097 49.161 45.7895 49.5881C43.9746 49.2678 42.1598 49.0543 40.4516 49.0543C35.1138 49.0543 30.5234 50.7623 27.0004 53.8583C23.4775 50.6556 18.887 49.0543 13.5492 49.0543C11.8411 49.0543 10.0263 49.2678 8.31821 49.5881C7.89123 49.0543 7.57096 48.6273 7.35741 48.0935C13.5492 39.553 13.5492 26.5289 7.35741 17.9884C7.57096 17.4546 7.89123 17.0276 8.2115 16.6006C9.59928 16.9209 10.8803 17.0276 12.1614 17.0276C21.4492 17.0276 25.0788 9.66143 26.1465 6.45876C26.787 6.35205 27.3208 6.35205 27.9613 6.45876C29.1357 9.55472 32.6586 17.0276 41.9464 17.0276C43.2274 17.0276 44.5085 16.9209 45.8963 16.6006C46.2166 17.0276 46.5368 17.4547 46.7504 17.9884C40.5585 26.5287 40.5585 39.553 46.7503 48.0935Z" fill="white"/>
<path d="M33.4055 25.5679H20.5949C19.9543 25.5679 19.5273 25.9949 19.5273 26.6355C19.5273 27.276 19.9543 27.703 20.5949 27.703H33.4055C34.0461 27.703 34.4731 27.276 34.4731 26.6355C34.4731 25.9951 34.0461 25.5679 33.4055 25.5679Z" fill="white"/>
<path d="M33.4055 30.9058H20.5949C19.9543 30.9058 19.5273 31.3328 19.5273 31.9733C19.5273 32.6138 19.9543 33.0408 20.5949 33.0408H33.4055C34.0461 33.0408 34.4731 32.6138 34.4731 31.9733C34.4731 31.3328 34.0461 30.9058 33.4055 30.9058Z" fill="white"/>
<path d="M33.4055 36.2436H20.5949C19.9543 36.2436 19.5273 36.6706 19.5273 37.3111C19.5273 37.9517 19.9543 38.3786 20.5949 38.3786H33.4055C34.0461 38.3786 34.4731 37.9517 34.4731 37.3111C34.4731 36.6706 34.0461 36.2436 33.4055 36.2436Z" fill="white"/>
<path d="M27.0001 21.2978C27.6407 21.2978 28.0676 20.8708 28.0676 20.2303C28.0676 19.5897 27.6407 19.1627 27.0001 19.1627C26.3596 19.1627 25.9326 19.5897 25.9326 20.2303C25.9326 20.8708 26.3596 21.2978 27.0001 21.2978Z" fill="white"/>
<path d="M27.0001 42.6489C26.3596 42.6489 25.9326 43.0759 25.9326 43.7165C25.9326 44.357 26.3596 44.784 27.0001 44.784C27.6407 44.784 28.0676 44.357 28.0676 43.7165C28.0676 43.0759 27.6407 42.6489 27.0001 42.6489Z" fill="white"/>
</svg>
