<svg width="208" height="39" viewBox="0 0 208 39" fill="none" xmlns="http://www.w3.org/2000/svg">
<path d="M5.92 27.28C5.92 27.8987 5.984 28.3467 6.112 28.624C6.24 28.9013 6.47467 29.0933 6.816 29.2C7.15733 29.2853 7.712 29.328 8.48 29.328H11.968C13.184 29.328 14.1547 28.9547 14.88 28.208C15.6053 27.4613 16.0853 26.4267 16.32 25.104C16.32 25.04 16.3733 25.0187 16.48 25.04C16.608 25.04 16.672 25.072 16.672 25.136C16.48 26.9067 16.384 28.368 16.384 29.52C16.384 29.6907 16.352 29.8187 16.288 29.904C16.224 29.968 16.096 30 15.904 30H1.12C1.07733 30 1.056 29.936 1.056 29.808C1.056 29.68 1.07733 29.616 1.12 29.616C1.93067 29.616 2.51733 29.5627 2.88 29.456C3.264 29.3493 3.52 29.1467 3.648 28.848C3.776 28.528 3.84 28.048 3.84 27.408V12.592C3.84 11.952 3.776 11.4827 3.648 11.184C3.52 10.8853 3.264 10.6827 2.88 10.576C2.51733 10.448 1.93067 10.384 1.12 10.384C1.07733 10.384 1.056 10.32 1.056 10.192C1.056 10.064 1.07733 10 1.12 10L2.688 10.032C3.584 10.0747 4.30933 10.096 4.864 10.096C5.46133 10.096 6.208 10.0747 7.104 10.032L8.64 10C8.704 10 8.736 10.064 8.736 10.192C8.736 10.32 8.704 10.384 8.64 10.384C7.85067 10.384 7.264 10.448 6.88 10.576C6.51733 10.6827 6.26133 10.896 6.112 11.216C5.984 11.5147 5.92 11.984 5.92 12.624V27.28ZM24.7105 27.408C24.7105 28.048 24.7745 28.528 24.9025 28.848C25.0305 29.1467 25.2758 29.3493 25.6385 29.456C26.0225 29.5627 26.6198 29.616 27.4305 29.616C27.4945 29.616 27.5265 29.68 27.5265 29.808C27.5265 29.936 27.4945 30 27.4305 30C26.7905 30 26.2785 29.9893 25.8945 29.968L23.6225 29.936L21.4145 29.968C21.0305 29.9893 20.5078 30 19.8465 30C19.7825 30 19.7505 29.936 19.7505 29.808C19.7505 29.68 19.7825 29.616 19.8465 29.616C20.6572 29.616 21.2438 29.5627 21.6065 29.456C21.9905 29.3493 22.2465 29.1467 22.3745 28.848C22.5238 28.528 22.5985 28.048 22.5985 27.408V12.592C22.5985 11.952 22.5238 11.4827 22.3745 11.184C22.2465 10.8853 21.9905 10.6827 21.6065 10.576C21.2438 10.448 20.6572 10.384 19.8465 10.384C19.7825 10.384 19.7505 10.32 19.7505 10.192C19.7505 10.064 19.7825 10 19.8465 10L21.4145 10.032C22.3105 10.0747 23.0465 10.096 23.6225 10.096C24.2625 10.096 25.0305 10.0747 25.9265 10.032L27.4305 10C27.4945 10 27.5265 10.064 27.5265 10.192C27.5265 10.32 27.4945 10.384 27.4305 10.384C26.6412 10.384 26.0545 10.448 25.6705 10.576C25.3078 10.704 25.0518 10.928 24.9025 11.248C24.7745 11.5467 24.7105 12.016 24.7105 12.656V27.408ZM56.2315 29.616C56.2955 29.616 56.3275 29.68 56.3275 29.808C56.3275 29.936 56.2955 30 56.2315 30C55.5702 30 55.0475 29.9893 54.6635 29.968L52.4555 29.936L50.4075 29.968C50.0662 29.9893 49.5862 30 48.9675 30C48.9248 30 48.9035 29.936 48.9035 29.808C48.9035 29.68 48.9248 29.616 48.9675 29.616C49.6928 29.616 50.2262 29.5627 50.5675 29.456C50.9302 29.328 51.1648 29.1147 51.2715 28.816C51.3995 28.5173 51.4422 28.048 51.3995 27.408L50.8235 12.848L43.5275 29.776C43.4848 29.8613 43.3995 29.904 43.2715 29.904C43.1648 29.904 43.0688 29.8613 42.9835 29.776L35.1115 13.04L34.8235 26.512C34.8022 27.6427 34.9942 28.4427 35.3995 28.912C35.8048 29.3813 36.5195 29.616 37.5435 29.616C37.5862 29.616 37.6075 29.68 37.6075 29.808C37.6075 29.936 37.5862 30 37.5435 30C36.9462 30 36.4875 29.9893 36.1675 29.968L34.4395 29.936L32.7755 29.968C32.4768 29.9893 32.0502 30 31.4955 30C31.4528 30 31.4315 29.936 31.4315 29.808C31.4315 29.68 31.4528 29.616 31.4955 29.616C32.3915 29.616 33.0315 29.3813 33.4155 28.912C33.8208 28.4213 34.0342 27.6213 34.0555 26.512L34.3435 11.664C33.7035 10.8107 32.8288 10.384 31.7195 10.384C31.6768 10.384 31.6555 10.32 31.6555 10.192C31.6555 10.064 31.6768 10 31.7195 10L32.9035 10.032C33.1168 10.0533 33.4155 10.064 33.7995 10.064C34.1835 10.064 34.5035 10.0533 34.7595 10.032C35.0368 10.0107 35.2502 10 35.3995 10C35.6768 10 35.9008 10.1067 36.0715 10.32C36.2635 10.512 36.5302 10.96 36.8715 11.664L44.0075 26.704L50.9835 10.8C51.2182 10.2667 51.5382 10 51.9435 10C52.0502 10 52.1995 10.0107 52.3915 10.032C52.6048 10.0533 52.8822 10.064 53.2235 10.064L54.7275 10.032C54.9622 10.0107 55.3142 10 55.7835 10C55.8475 10 55.8795 10.064 55.8795 10.192C55.8795 10.32 55.8475 10.384 55.7835 10.384C54.7168 10.384 53.9488 10.544 53.4795 10.864C53.0315 11.1627 52.8182 11.7387 52.8395 12.592L53.4795 27.408C53.5008 28.0693 53.5755 28.5493 53.7035 28.848C53.8528 29.1467 54.1088 29.3493 54.4715 29.456C54.8342 29.5627 55.4208 29.616 56.2315 29.616ZM73.4775 25.232C73.4775 25.1893 73.5202 25.168 73.6055 25.168C73.6695 25.168 73.7228 25.1787 73.7655 25.2C73.8295 25.2213 73.8615 25.2533 73.8615 25.296C73.6695 26.64 73.5735 28.048 73.5735 29.52C73.5735 29.6907 73.5308 29.8187 73.4455 29.904C73.3815 29.968 73.2535 30 73.0615 30H59.6535C59.6108 30 59.5895 29.936 59.5895 29.808C59.5895 29.68 59.6108 29.616 59.6535 29.616C60.4642 29.616 61.0508 29.5627 61.4135 29.456C61.7975 29.3493 62.0535 29.1467 62.1815 28.848C62.3308 28.528 62.4055 28.048 62.4055 27.408V12.592C62.4055 11.952 62.3308 11.4827 62.1815 11.184C62.0535 10.8853 61.7975 10.6827 61.4135 10.576C61.0508 10.448 60.4642 10.384 59.6535 10.384C59.6108 10.384 59.5895 10.32 59.5895 10.192C59.5895 10.064 59.6108 10 59.6535 10H72.5175C72.7095 10 72.8055 10.096 72.8055 10.288L72.8695 14.224C72.8695 14.288 72.8162 14.3307 72.7095 14.352C72.6028 14.352 72.5388 14.32 72.5175 14.256C72.4535 13.1253 72.1122 12.2507 71.4935 11.632C70.8748 10.992 70.0535 10.672 69.0295 10.672H67.0775C66.3308 10.672 65.7762 10.736 65.4135 10.864C65.0722 10.9707 64.8268 11.1733 64.6775 11.472C64.5495 11.7493 64.4855 12.176 64.4855 12.752V19.248H68.3895C69.4135 19.248 70.1388 19.0773 70.5655 18.736C71.0135 18.3947 71.2375 17.8187 71.2375 17.008C71.2375 16.9653 71.3015 16.944 71.4295 16.944C71.5575 16.944 71.6215 16.9653 71.6215 17.008L71.5895 19.6C71.5895 20.2187 71.6002 20.688 71.6215 21.008L71.6535 22.544C71.6535 22.5867 71.5895 22.608 71.4615 22.608C71.3335 22.608 71.2695 22.5867 71.2695 22.544C71.2695 21.6053 71.0348 20.9333 70.5655 20.528C70.1175 20.1227 69.3602 19.92 68.2935 19.92H64.4855V27.28C64.4855 27.8773 64.5495 28.3147 64.6775 28.592C64.8055 28.8693 65.0402 29.0613 65.3815 29.168C65.7228 29.2747 66.2562 29.328 66.9815 29.328H69.5415C70.5655 29.328 71.4188 28.9653 72.1015 28.24C72.7842 27.5147 73.2428 26.512 73.4775 25.232ZM90.165 13.744C90.165 14.576 90.3677 15.3013 90.773 15.92C91.1783 16.5387 91.669 17.0613 92.245 17.488C92.821 17.8933 93.6317 18.416 94.677 19.056C95.7863 19.7173 96.6503 20.272 97.269 20.72C97.8877 21.168 98.4103 21.744 98.837 22.448C99.285 23.1307 99.509 23.952 99.509 24.912C99.509 25.936 99.253 26.864 98.741 27.696C98.229 28.528 97.4717 29.1893 96.469 29.68C95.4877 30.1493 94.3037 30.384 92.917 30.384C91.2743 30.384 89.7703 30.0107 88.405 29.264C88.2983 29.2 88.2237 29.1253 88.181 29.04C88.1597 28.9547 88.1383 28.8267 88.117 28.656L87.701 24.304C87.6797 24.2187 87.7223 24.1653 87.829 24.144C87.957 24.1227 88.0317 24.1547 88.053 24.24C88.3943 25.776 89.0237 27.0987 89.941 28.208C90.8797 29.3173 92.117 29.872 93.653 29.872C94.7197 29.872 95.6157 29.584 96.341 29.008C97.0877 28.4107 97.461 27.472 97.461 26.192C97.461 25.232 97.2477 24.4 96.821 23.696C96.3943 22.992 95.8717 22.416 95.253 21.968C94.6557 21.4987 93.8343 20.9547 92.789 20.336C91.765 19.7173 90.9543 19.184 90.357 18.736C89.781 18.288 89.2903 17.7227 88.885 17.04C88.4797 16.3573 88.277 15.5573 88.277 14.64C88.277 13.5733 88.5543 12.6667 89.109 11.92C89.685 11.152 90.421 10.5867 91.317 10.224C92.2343 9.84 93.205 9.648 94.229 9.648C95.4877 9.648 96.7357 9.904 97.973 10.416C98.293 10.5227 98.453 10.704 98.453 10.96L98.677 14.64C98.677 14.7253 98.6237 14.768 98.517 14.768C98.4103 14.768 98.3463 14.7253 98.325 14.64C98.1543 13.5307 97.6957 12.5067 96.949 11.568C96.2023 10.608 95.125 10.128 93.717 10.128C92.5223 10.128 91.6263 10.48 91.029 11.184C90.453 11.8667 90.165 12.72 90.165 13.744ZM108.572 10.576C107.228 10.576 106.214 10.9173 105.532 11.6C104.87 12.2827 104.39 13.4453 104.092 15.088C104.092 15.1307 104.028 15.152 103.9 15.152C103.793 15.152 103.74 15.1307 103.74 15.088C103.825 14.32 103.921 13.3173 104.028 12.08C104.134 10.8427 104.188 9.91467 104.188 9.296C104.188 9.18933 104.241 9.136 104.348 9.136C104.476 9.136 104.54 9.18933 104.54 9.296C104.54 9.76533 105.116 10 106.268 10C108.081 10.064 110.225 10.096 112.7 10.096C113.958 10.096 115.292 10.0747 116.7 10.032L118.876 10C119.644 10 120.209 9.94667 120.572 9.84C120.956 9.73333 121.201 9.52 121.308 9.2C121.329 9.11467 121.393 9.072 121.5 9.072C121.606 9.072 121.66 9.11467 121.66 9.2C121.596 9.81867 121.532 10.7573 121.468 12.016C121.404 13.2747 121.372 14.2987 121.372 15.088C121.372 15.1307 121.308 15.152 121.18 15.152C121.052 15.152 120.988 15.1307 120.988 15.088C120.924 13.424 120.582 12.2613 119.964 11.6C119.345 10.9173 118.321 10.576 116.892 10.576C115.932 10.576 115.249 10.6187 114.844 10.704C114.438 10.7893 114.161 10.9707 114.012 11.248C113.862 11.5253 113.788 11.9947 113.788 12.656V27.408C113.788 28.0693 113.862 28.5493 114.012 28.848C114.161 29.1467 114.449 29.3493 114.876 29.456C115.302 29.5627 115.974 29.616 116.892 29.616C116.956 29.616 116.988 29.68 116.988 29.808C116.988 29.936 116.956 30 116.892 30C116.188 30 115.622 29.9893 115.196 29.968L112.7 29.936L110.3 29.968C109.873 29.9893 109.286 30 108.54 30C108.497 30 108.476 29.936 108.476 29.808C108.476 29.68 108.497 29.616 108.54 29.616C109.457 29.616 110.129 29.5627 110.556 29.456C110.982 29.3493 111.27 29.1467 111.42 28.848C111.59 28.528 111.676 28.048 111.676 27.408V12.592C111.676 11.9307 111.601 11.472 111.452 11.216C111.302 10.9387 111.025 10.768 110.62 10.704C110.214 10.6187 109.532 10.576 108.572 10.576ZM142.389 13.52C142.389 11.4293 141.461 10.384 139.605 10.384C139.541 10.384 139.509 10.32 139.509 10.192C139.509 10.064 139.541 10 139.605 10L140.981 10.032C141.749 10.0747 142.357 10.096 142.805 10.096C143.168 10.096 143.69 10.0747 144.373 10.032L145.717 10C145.76 10 145.781 10.064 145.781 10.192C145.781 10.32 145.76 10.384 145.717 10.384C144.01 10.384 143.157 11.4293 143.157 13.52V22.608C143.157 25.0613 142.474 26.9813 141.109 28.368C139.744 29.7333 137.909 30.416 135.605 30.416C134.026 30.416 132.64 30.1067 131.445 29.488C130.272 28.8693 129.354 27.9947 128.693 26.864C128.053 25.712 127.733 24.368 127.733 22.832V12.592C127.733 11.952 127.669 11.4827 127.541 11.184C127.413 10.8853 127.157 10.6827 126.773 10.576C126.41 10.448 125.824 10.384 125.013 10.384C124.97 10.384 124.949 10.32 124.949 10.192C124.949 10.064 124.97 10 125.013 10L126.581 10.032C127.477 10.0747 128.202 10.096 128.757 10.096C129.354 10.096 130.101 10.0747 130.997 10.032L132.533 10C132.597 10 132.629 10.064 132.629 10.192C132.629 10.32 132.597 10.384 132.533 10.384C131.744 10.384 131.157 10.448 130.773 10.576C130.389 10.704 130.133 10.928 130.005 11.248C129.877 11.5467 129.813 12.016 129.813 12.656V21.712C129.813 24.208 130.378 26.128 131.509 27.472C132.661 28.7947 134.261 29.456 136.309 29.456C138.229 29.456 139.722 28.8587 140.789 27.664C141.856 26.448 142.389 24.7733 142.389 22.64V13.52ZM157.405 30.128C156.786 30.128 156.071 30.096 155.261 30.032C154.962 30.0107 154.578 29.9893 154.109 29.968C153.661 29.9467 153.159 29.936 152.605 29.936L150.429 29.968C150.045 29.9893 149.511 30 148.829 30C148.786 30 148.765 29.936 148.765 29.808C148.765 29.68 148.786 29.616 148.829 29.616C149.639 29.616 150.226 29.5627 150.589 29.456C150.973 29.3493 151.229 29.1467 151.357 28.848C151.506 28.528 151.581 28.048 151.581 27.408V12.592C151.581 11.952 151.517 11.4827 151.389 11.184C151.261 10.8853 151.005 10.6827 150.621 10.576C150.258 10.448 149.671 10.384 148.861 10.384C148.818 10.384 148.797 10.32 148.797 10.192C148.797 10.064 148.818 10 148.861 10L150.461 10.032C151.357 10.0747 152.071 10.096 152.605 10.096C153.415 10.096 154.215 10.064 155.005 10C155.943 9.95733 156.594 9.936 156.957 9.936C159.175 9.936 161.138 10.3627 162.845 11.216C164.551 12.0693 165.874 13.232 166.813 14.704C167.773 16.176 168.253 17.8293 168.253 19.664C168.253 21.7333 167.762 23.568 166.781 25.168C165.821 26.7467 164.509 27.9733 162.845 28.848C161.181 29.7013 159.367 30.128 157.405 30.128ZM157.085 29.648C158.791 29.648 160.306 29.296 161.629 28.592C162.951 27.8667 163.975 26.8107 164.701 25.424C165.447 24.016 165.821 22.3307 165.821 20.368C165.821 18.512 165.469 16.8267 164.765 15.312C164.061 13.7973 163.058 12.6027 161.757 11.728C160.455 10.8533 158.951 10.416 157.245 10.416C156.327 10.416 155.613 10.4693 155.101 10.576C154.61 10.6827 154.247 10.896 154.013 11.216C153.778 11.536 153.661 12.016 153.661 12.656V27.056C153.661 27.696 153.746 28.1973 153.917 28.56C154.109 28.9227 154.45 29.2 154.941 29.392C155.453 29.5627 156.167 29.648 157.085 29.648ZM177.482 27.408C177.482 28.048 177.546 28.528 177.674 28.848C177.802 29.1467 178.047 29.3493 178.41 29.456C178.794 29.5627 179.391 29.616 180.202 29.616C180.266 29.616 180.298 29.68 180.298 29.808C180.298 29.936 180.266 30 180.202 30C179.562 30 179.05 29.9893 178.666 29.968L176.394 29.936L174.186 29.968C173.802 29.9893 173.279 30 172.618 30C172.554 30 172.522 29.936 172.522 29.808C172.522 29.68 172.554 29.616 172.618 29.616C173.428 29.616 174.015 29.5627 174.378 29.456C174.762 29.3493 175.018 29.1467 175.146 28.848C175.295 28.528 175.37 28.048 175.37 27.408V12.592C175.37 11.952 175.295 11.4827 175.146 11.184C175.018 10.8853 174.762 10.6827 174.378 10.576C174.015 10.448 173.428 10.384 172.618 10.384C172.554 10.384 172.522 10.32 172.522 10.192C172.522 10.064 172.554 10 172.618 10L174.186 10.032C175.082 10.0747 175.818 10.096 176.394 10.096C177.034 10.096 177.802 10.0747 178.698 10.032L180.202 10C180.266 10 180.298 10.064 180.298 10.192C180.298 10.32 180.266 10.384 180.202 10.384C179.412 10.384 178.826 10.448 178.442 10.576C178.079 10.704 177.823 10.928 177.674 11.248C177.546 11.5467 177.482 12.016 177.482 12.656V27.408ZM194.731 30.384C192.747 30.384 190.976 29.9253 189.419 29.008C187.883 28.0693 186.688 26.8107 185.835 25.232C185.003 23.632 184.587 21.8933 184.587 20.016C184.587 17.8187 185.141 15.9413 186.251 14.384C187.36 12.8053 188.779 11.6213 190.507 10.832C192.256 10.0427 194.037 9.648 195.851 9.648C197.877 9.648 199.659 10.128 201.195 11.088C202.731 12.0267 203.904 13.2747 204.715 14.832C205.547 16.3893 205.963 18.0427 205.963 19.792C205.963 21.7333 205.451 23.5147 204.427 25.136C203.403 26.7573 202.027 28.0373 200.299 28.976C198.592 29.9147 196.736 30.384 194.731 30.384ZM195.851 29.712C197.301 29.712 198.603 29.36 199.755 28.656C200.928 27.952 201.845 26.9173 202.507 25.552C203.189 24.1867 203.531 22.5653 203.531 20.688C203.531 18.6827 203.157 16.9013 202.411 15.344C201.664 13.7867 200.608 12.5707 199.243 11.696C197.899 10.8213 196.32 10.384 194.507 10.384C192.16 10.384 190.325 11.1413 189.003 12.656C187.68 14.1707 187.019 16.2507 187.019 18.896C187.019 20.9013 187.392 22.736 188.139 24.4C188.885 26.0427 189.931 27.344 191.275 28.304C192.619 29.2427 194.144 29.712 195.851 29.712Z" fill="#2E2E34"/>
</svg>
