<svg width="312" height="75" viewBox="0 0 312 75" fill="none" xmlns="http://www.w3.org/2000/svg">
<path d="M8.88 39.92C8.88 40.848 8.976 41.52 9.168 41.936C9.36 42.352 9.712 42.64 10.224 42.8C10.736 42.928 11.568 42.992 12.72 42.992H17.952C19.776 42.992 21.232 42.432 22.32 41.312C23.408 40.192 24.128 38.64 24.48 36.656C24.48 36.56 24.56 36.528 24.72 36.56C24.912 36.56 25.008 36.608 25.008 36.704C24.72 39.36 24.576 41.552 24.576 43.28C24.576 43.536 24.528 43.728 24.432 43.856C24.336 43.952 24.144 44 23.856 44H1.68C1.616 44 1.584 43.904 1.584 43.712C1.584 43.52 1.616 43.424 1.68 43.424C2.896 43.424 3.776 43.344 4.32 43.184C4.896 43.024 5.28 42.72 5.472 42.272C5.664 41.792 5.76 41.072 5.76 40.112V17.888C5.76 16.928 5.664 16.224 5.472 15.776C5.28 15.328 4.896 15.024 4.32 14.864C3.776 14.672 2.896 14.576 1.68 14.576C1.616 14.576 1.584 14.48 1.584 14.288C1.584 14.096 1.616 14 1.68 14L4.032 14.048C5.376 14.112 6.464 14.144 7.296 14.144C8.192 14.144 9.312 14.112 10.656 14.048L12.96 14C13.056 14 13.104 14.096 13.104 14.288C13.104 14.48 13.056 14.576 12.96 14.576C11.776 14.576 10.896 14.672 10.32 14.864C9.776 15.024 9.392 15.344 9.168 15.824C8.976 16.272 8.88 16.976 8.88 17.936V39.92ZM37.0658 40.112C37.0658 41.072 37.1618 41.792 37.3538 42.272C37.5458 42.72 37.9138 43.024 38.4578 43.184C39.0338 43.344 39.9298 43.424 41.1458 43.424C41.2418 43.424 41.2898 43.52 41.2898 43.712C41.2898 43.904 41.2418 44 41.1458 44C40.1858 44 39.4178 43.984 38.8418 43.952L35.4338 43.904L32.1218 43.952C31.5458 43.984 30.7618 44 29.7698 44C29.6738 44 29.6258 43.904 29.6258 43.712C29.6258 43.52 29.6738 43.424 29.7698 43.424C30.9858 43.424 31.8658 43.344 32.4098 43.184C32.9858 43.024 33.3698 42.72 33.5618 42.272C33.7858 41.792 33.8978 41.072 33.8978 40.112V17.888C33.8978 16.928 33.7858 16.224 33.5618 15.776C33.3698 15.328 32.9858 15.024 32.4098 14.864C31.8658 14.672 30.9858 14.576 29.7698 14.576C29.6738 14.576 29.6258 14.48 29.6258 14.288C29.6258 14.096 29.6738 14 29.7698 14L32.1218 14.048C33.4658 14.112 34.5698 14.144 35.4338 14.144C36.3938 14.144 37.5458 14.112 38.8898 14.048L41.1458 14C41.2418 14 41.2898 14.096 41.2898 14.288C41.2898 14.48 41.2418 14.576 41.1458 14.576C39.9618 14.576 39.0818 14.672 38.5058 14.864C37.9618 15.056 37.5778 15.392 37.3538 15.872C37.1618 16.32 37.0658 17.024 37.0658 17.984V40.112ZM84.3473 43.424C84.4433 43.424 84.4913 43.52 84.4913 43.712C84.4913 43.904 84.4433 44 84.3473 44C83.3553 44 82.5713 43.984 81.9953 43.952L78.6833 43.904L75.6113 43.952C75.0993 43.984 74.3793 44 73.4513 44C73.3873 44 73.3553 43.904 73.3553 43.712C73.3553 43.52 73.3873 43.424 73.4513 43.424C74.5393 43.424 75.3393 43.344 75.8513 43.184C76.3953 42.992 76.7473 42.672 76.9073 42.224C77.0993 41.776 77.1633 41.072 77.0993 40.112L76.2353 18.272L65.2913 43.664C65.2273 43.792 65.0993 43.856 64.9073 43.856C64.7473 43.856 64.6033 43.792 64.4753 43.664L52.6673 18.56L52.2353 38.768C52.2033 40.464 52.4913 41.664 53.0993 42.368C53.7073 43.072 54.7793 43.424 56.3153 43.424C56.3793 43.424 56.4113 43.52 56.4113 43.712C56.4113 43.904 56.3793 44 56.3153 44C55.4193 44 54.7313 43.984 54.2513 43.952L51.6593 43.904L49.1633 43.952C48.7153 43.984 48.0753 44 47.2433 44C47.1793 44 47.1473 43.904 47.1473 43.712C47.1473 43.52 47.1793 43.424 47.2433 43.424C48.5873 43.424 49.5473 43.072 50.1233 42.368C50.7313 41.632 51.0513 40.432 51.0833 38.768L51.5153 16.496C50.5553 15.216 49.2433 14.576 47.5793 14.576C47.5153 14.576 47.4833 14.48 47.4833 14.288C47.4833 14.096 47.5153 14 47.5793 14L49.3553 14.048C49.6753 14.08 50.1233 14.096 50.6993 14.096C51.2753 14.096 51.7553 14.08 52.1393 14.048C52.5553 14.016 52.8753 14 53.0993 14C53.5153 14 53.8513 14.16 54.1073 14.48C54.3953 14.768 54.7953 15.44 55.3073 16.496L66.0113 39.056L76.4753 15.2C76.8273 14.4 77.3073 14 77.9153 14C78.0753 14 78.2993 14.016 78.5873 14.048C78.9073 14.08 79.3233 14.096 79.8353 14.096L82.0913 14.048C82.4433 14.016 82.9713 14 83.6753 14C83.7713 14 83.8193 14.096 83.8193 14.288C83.8193 14.48 83.7713 14.576 83.6753 14.576C82.0753 14.576 80.9233 14.816 80.2193 15.296C79.5473 15.744 79.2273 16.608 79.2593 17.888L80.2193 40.112C80.2513 41.104 80.3633 41.824 80.5553 42.272C80.7793 42.72 81.1633 43.024 81.7073 43.184C82.2513 43.344 83.1313 43.424 84.3473 43.424ZM110.216 36.848C110.216 36.784 110.28 36.752 110.408 36.752C110.504 36.752 110.584 36.768 110.648 36.8C110.744 36.832 110.792 36.88 110.792 36.944C110.504 38.96 110.36 41.072 110.36 43.28C110.36 43.536 110.296 43.728 110.168 43.856C110.072 43.952 109.88 44 109.592 44H89.4803C89.4163 44 89.3843 43.904 89.3843 43.712C89.3843 43.52 89.4163 43.424 89.4803 43.424C90.6963 43.424 91.5763 43.344 92.1203 43.184C92.6963 43.024 93.0803 42.72 93.2723 42.272C93.4963 41.792 93.6083 41.072 93.6083 40.112V17.888C93.6083 16.928 93.4963 16.224 93.2723 15.776C93.0803 15.328 92.6963 15.024 92.1203 14.864C91.5763 14.672 90.6963 14.576 89.4803 14.576C89.4163 14.576 89.3843 14.48 89.3843 14.288C89.3843 14.096 89.4163 14 89.4803 14H108.776C109.064 14 109.208 14.144 109.208 14.432L109.304 20.336C109.304 20.432 109.224 20.496 109.064 20.528C108.904 20.528 108.808 20.48 108.776 20.384C108.68 18.688 108.168 17.376 107.24 16.448C106.312 15.488 105.08 15.008 103.544 15.008H100.616C99.4963 15.008 98.6643 15.104 98.1203 15.296C97.6083 15.456 97.2403 15.76 97.0163 16.208C96.8243 16.624 96.7283 17.264 96.7283 18.128V27.872H102.584C104.12 27.872 105.208 27.616 105.848 27.104C106.52 26.592 106.856 25.728 106.856 24.512C106.856 24.448 106.952 24.416 107.144 24.416C107.336 24.416 107.432 24.448 107.432 24.512L107.384 28.4C107.384 29.328 107.4 30.032 107.432 30.512L107.48 32.816C107.48 32.88 107.384 32.912 107.192 32.912C107 32.912 106.904 32.88 106.904 32.816C106.904 31.408 106.552 30.4 105.848 29.792C105.176 29.184 104.04 28.88 102.44 28.88H96.7283V39.92C96.7283 40.816 96.8243 41.472 97.0163 41.888C97.2083 42.304 97.5603 42.592 98.0723 42.752C98.5843 42.912 99.3843 42.992 100.472 42.992H104.312C105.848 42.992 107.128 42.448 108.152 41.36C109.176 40.272 109.864 38.768 110.216 36.848ZM135.248 19.616C135.248 20.864 135.552 21.952 136.16 22.88C136.768 23.808 137.504 24.592 138.368 25.232C139.232 25.84 140.448 26.624 142.016 27.584C143.68 28.576 144.976 29.408 145.904 30.08C146.832 30.752 147.616 31.616 148.256 32.672C148.928 33.696 149.264 34.928 149.264 36.368C149.264 37.904 148.88 39.296 148.112 40.544C147.344 41.792 146.208 42.784 144.704 43.52C143.232 44.224 141.456 44.576 139.376 44.576C136.912 44.576 134.656 44.016 132.608 42.896C132.448 42.8 132.336 42.688 132.272 42.56C132.24 42.432 132.208 42.24 132.176 41.984L131.552 35.456C131.52 35.328 131.584 35.248 131.744 35.216C131.936 35.184 132.048 35.232 132.08 35.36C132.592 37.664 133.536 39.648 134.912 41.312C136.32 42.976 138.176 43.808 140.48 43.808C142.08 43.808 143.424 43.376 144.512 42.512C145.632 41.616 146.192 40.208 146.192 38.288C146.192 36.848 145.872 35.6 145.232 34.544C144.592 33.488 143.808 32.624 142.88 31.952C141.984 31.248 140.752 30.432 139.184 29.504C137.648 28.576 136.432 27.776 135.536 27.104C134.672 26.432 133.936 25.584 133.328 24.56C132.72 23.536 132.416 22.336 132.416 20.96C132.416 19.36 132.832 18 133.664 16.88C134.528 15.728 135.632 14.88 136.976 14.336C138.352 13.76 139.808 13.472 141.344 13.472C143.232 13.472 145.104 13.856 146.96 14.624C147.44 14.784 147.68 15.056 147.68 15.44L148.016 20.96C148.016 21.088 147.936 21.152 147.776 21.152C147.616 21.152 147.52 21.088 147.488 20.96C147.232 19.296 146.544 17.76 145.424 16.352C144.304 14.912 142.688 14.192 140.576 14.192C138.784 14.192 137.44 14.72 136.544 15.776C135.68 16.8 135.248 18.08 135.248 19.616ZM162.858 14.864C160.842 14.864 159.322 15.376 158.298 16.4C157.306 17.424 156.586 19.168 156.138 21.632C156.138 21.696 156.042 21.728 155.85 21.728C155.69 21.728 155.61 21.696 155.61 21.632C155.738 20.48 155.882 18.976 156.042 17.12C156.202 15.264 156.282 13.872 156.282 12.944C156.282 12.784 156.362 12.704 156.522 12.704C156.714 12.704 156.81 12.784 156.81 12.944C156.81 13.648 157.674 14 159.402 14C162.122 14.096 165.338 14.144 169.05 14.144C170.938 14.144 172.938 14.112 175.05 14.048L178.314 14C179.466 14 180.314 13.92 180.858 13.76C181.434 13.6 181.802 13.28 181.962 12.8C181.994 12.672 182.09 12.608 182.25 12.608C182.41 12.608 182.49 12.672 182.49 12.8C182.394 13.728 182.298 15.136 182.202 17.024C182.106 18.912 182.058 20.448 182.058 21.632C182.058 21.696 181.962 21.728 181.77 21.728C181.578 21.728 181.482 21.696 181.482 21.632C181.386 19.136 180.874 17.392 179.946 16.4C179.018 15.376 177.482 14.864 175.338 14.864C173.898 14.864 172.874 14.928 172.266 15.056C171.658 15.184 171.242 15.456 171.018 15.872C170.794 16.288 170.682 16.992 170.682 17.984V40.112C170.682 41.104 170.794 41.824 171.018 42.272C171.242 42.72 171.674 43.024 172.314 43.184C172.954 43.344 173.962 43.424 175.338 43.424C175.434 43.424 175.482 43.52 175.482 43.712C175.482 43.904 175.434 44 175.338 44C174.282 44 173.434 43.984 172.794 43.952L169.05 43.904L165.45 43.952C164.81 43.984 163.93 44 162.81 44C162.746 44 162.714 43.904 162.714 43.712C162.714 43.52 162.746 43.424 162.81 43.424C164.186 43.424 165.194 43.344 165.834 43.184C166.474 43.024 166.906 42.72 167.13 42.272C167.386 41.792 167.514 41.072 167.514 40.112V17.888C167.514 16.896 167.402 16.208 167.178 15.824C166.954 15.408 166.538 15.152 165.93 15.056C165.322 14.928 164.298 14.864 162.858 14.864ZM213.584 19.28C213.584 16.144 212.192 14.576 209.408 14.576C209.312 14.576 209.264 14.48 209.264 14.288C209.264 14.096 209.312 14 209.408 14L211.472 14.048C212.624 14.112 213.536 14.144 214.208 14.144C214.752 14.144 215.536 14.112 216.56 14.048L218.576 14C218.64 14 218.672 14.096 218.672 14.288C218.672 14.48 218.64 14.576 218.576 14.576C216.016 14.576 214.736 16.144 214.736 19.28V32.912C214.736 36.592 213.712 39.472 211.664 41.552C209.616 43.6 206.864 44.624 203.408 44.624C201.04 44.624 198.96 44.16 197.168 43.232C195.408 42.304 194.032 40.992 193.04 39.296C192.08 37.568 191.6 35.552 191.6 33.248V17.888C191.6 16.928 191.504 16.224 191.312 15.776C191.12 15.328 190.736 15.024 190.16 14.864C189.616 14.672 188.736 14.576 187.52 14.576C187.456 14.576 187.424 14.48 187.424 14.288C187.424 14.096 187.456 14 187.52 14L189.872 14.048C191.216 14.112 192.304 14.144 193.136 14.144C194.032 14.144 195.152 14.112 196.496 14.048L198.8 14C198.896 14 198.944 14.096 198.944 14.288C198.944 14.48 198.896 14.576 198.8 14.576C197.616 14.576 196.736 14.672 196.16 14.864C195.584 15.056 195.2 15.392 195.008 15.872C194.816 16.32 194.72 17.024 194.72 17.984V31.568C194.72 35.312 195.568 38.192 197.264 40.208C198.992 42.192 201.392 43.184 204.464 43.184C207.344 43.184 209.584 42.288 211.184 40.496C212.784 38.672 213.584 36.16 213.584 32.96V19.28ZM236.107 44.192C235.179 44.192 234.107 44.144 232.891 44.048C232.443 44.016 231.867 43.984 231.163 43.952C230.491 43.92 229.739 43.904 228.907 43.904L225.643 43.952C225.067 43.984 224.267 44 223.243 44C223.179 44 223.147 43.904 223.147 43.712C223.147 43.52 223.179 43.424 223.243 43.424C224.459 43.424 225.339 43.344 225.883 43.184C226.459 43.024 226.843 42.72 227.035 42.272C227.259 41.792 227.371 41.072 227.371 40.112V17.888C227.371 16.928 227.275 16.224 227.083 15.776C226.891 15.328 226.507 15.024 225.931 14.864C225.387 14.672 224.507 14.576 223.291 14.576C223.227 14.576 223.195 14.48 223.195 14.288C223.195 14.096 223.227 14 223.291 14L225.691 14.048C227.035 14.112 228.107 14.144 228.907 14.144C230.123 14.144 231.323 14.096 232.507 14C233.915 13.936 234.891 13.904 235.435 13.904C238.763 13.904 241.707 14.544 244.267 15.824C246.827 17.104 248.811 18.848 250.219 21.056C251.659 23.264 252.379 25.744 252.379 28.496C252.379 31.6 251.643 34.352 250.171 36.752C248.731 39.12 246.763 40.96 244.267 42.272C241.771 43.552 239.051 44.192 236.107 44.192ZM235.627 43.472C238.187 43.472 240.459 42.944 242.443 41.888C244.427 40.8 245.963 39.216 247.051 37.136C248.171 35.024 248.731 32.496 248.731 29.552C248.731 26.768 248.203 24.24 247.147 21.968C246.091 19.696 244.587 17.904 242.635 16.592C240.683 15.28 238.427 14.624 235.867 14.624C234.491 14.624 233.419 14.704 232.651 14.864C231.915 15.024 231.371 15.344 231.019 15.824C230.667 16.304 230.491 17.024 230.491 17.984V39.584C230.491 40.544 230.619 41.296 230.875 41.84C231.163 42.384 231.675 42.8 232.411 43.088C233.179 43.344 234.251 43.472 235.627 43.472ZM266.223 40.112C266.223 41.072 266.319 41.792 266.511 42.272C266.703 42.72 267.071 43.024 267.615 43.184C268.191 43.344 269.087 43.424 270.303 43.424C270.399 43.424 270.447 43.52 270.447 43.712C270.447 43.904 270.399 44 270.303 44C269.343 44 268.575 43.984 267.999 43.952L264.591 43.904L261.279 43.952C260.703 43.984 259.919 44 258.927 44C258.831 44 258.783 43.904 258.783 43.712C258.783 43.52 258.831 43.424 258.927 43.424C260.143 43.424 261.023 43.344 261.567 43.184C262.143 43.024 262.527 42.72 262.719 42.272C262.943 41.792 263.055 41.072 263.055 40.112V17.888C263.055 16.928 262.943 16.224 262.719 15.776C262.527 15.328 262.143 15.024 261.567 14.864C261.023 14.672 260.143 14.576 258.927 14.576C258.831 14.576 258.783 14.48 258.783 14.288C258.783 14.096 258.831 14 258.927 14L261.279 14.048C262.623 14.112 263.727 14.144 264.591 14.144C265.551 14.144 266.703 14.112 268.047 14.048L270.303 14C270.399 14 270.447 14.096 270.447 14.288C270.447 14.48 270.399 14.576 270.303 14.576C269.119 14.576 268.239 14.672 267.663 14.864C267.119 15.056 266.735 15.392 266.511 15.872C266.319 16.32 266.223 17.024 266.223 17.984V40.112ZM292.096 44.576C289.12 44.576 286.464 43.888 284.128 42.512C281.824 41.104 280.032 39.216 278.752 36.848C277.504 34.448 276.88 31.84 276.88 29.024C276.88 25.728 277.712 22.912 279.376 20.576C281.04 18.208 283.168 16.432 285.76 15.248C288.384 14.064 291.056 13.472 293.776 13.472C296.816 13.472 299.488 14.192 301.792 15.632C304.096 17.04 305.856 18.912 307.072 21.248C308.32 23.584 308.944 26.064 308.944 28.688C308.944 31.6 308.176 34.272 306.64 36.704C305.104 39.136 303.04 41.056 300.448 42.464C297.888 43.872 295.104 44.576 292.096 44.576ZM293.776 43.568C295.952 43.568 297.904 43.04 299.632 41.984C301.392 40.928 302.768 39.376 303.76 37.328C304.784 35.28 305.296 32.848 305.296 30.032C305.296 27.024 304.736 24.352 303.616 22.016C302.496 19.68 300.912 17.856 298.864 16.544C296.848 15.232 294.48 14.576 291.76 14.576C288.24 14.576 285.488 15.712 283.504 17.984C281.52 20.256 280.528 23.376 280.528 27.344C280.528 30.352 281.088 33.104 282.208 35.6C283.328 38.064 284.896 40.016 286.912 41.456C288.928 42.864 291.216 43.568 293.776 43.568Z" fill="#2E2E34"/>
<path d="M116.958 62.194C116.414 61.7973 115.881 61.5083 115.36 61.327C114.85 61.1457 114.289 61.055 113.677 61.055C113.02 61.055 112.419 61.1683 111.875 61.395C111.342 61.6103 110.883 61.9163 110.498 62.313C110.124 62.6983 109.835 63.163 109.631 63.707C109.427 64.2397 109.325 64.8233 109.325 65.458C109.325 66.172 109.438 66.801 109.665 67.345C109.892 67.8777 110.198 68.331 110.583 68.705C110.98 69.0677 111.439 69.3397 111.96 69.521C112.493 69.7023 113.059 69.793 113.66 69.793C114 69.793 114.317 69.776 114.612 69.742C114.907 69.708 115.19 69.6513 115.462 69.572C115.734 69.4813 116.006 69.368 116.278 69.232C116.55 69.096 116.833 68.926 117.128 68.722L117.604 70.116C116.992 70.5353 116.363 70.8243 115.717 70.983C115.082 71.1417 114.34 71.221 113.49 71.221C112.753 71.221 112.034 71.1077 111.331 70.881C110.64 70.643 110.022 70.2917 109.478 69.827C108.945 69.351 108.515 68.7503 108.186 68.025C107.869 67.2997 107.71 66.444 107.71 65.458C107.71 64.608 107.869 63.8317 108.186 63.129C108.503 62.415 108.934 61.8087 109.478 61.31C110.022 60.8113 110.657 60.426 111.382 60.154C112.107 59.8707 112.872 59.729 113.677 59.729C114.504 59.729 115.218 59.8253 115.819 60.018C116.431 60.2107 117.026 60.5223 117.604 60.953L116.958 62.194ZM119.944 63.078C120.578 62.8173 121.162 62.6303 121.695 62.517C122.239 62.3923 122.862 62.33 123.565 62.33C124.823 62.33 125.746 62.5623 126.336 63.027C126.936 63.4917 127.237 64.2453 127.237 65.288V68.841C127.237 69.249 127.305 69.5267 127.441 69.674C127.577 69.81 127.86 69.878 128.291 69.878V71C128.098 71.0567 127.917 71.0963 127.747 71.119C127.588 71.153 127.395 71.17 127.169 71.17C126.817 71.17 126.54 71.0453 126.336 70.796C126.132 70.5467 126.013 70.2067 125.979 69.776C125.197 70.7053 124.029 71.17 122.477 71.17C121.479 71.17 120.72 70.9377 120.199 70.473C119.689 70.0083 119.434 69.3737 119.434 68.569C119.434 68.1837 119.49 67.8323 119.604 67.515C119.728 67.1977 119.938 66.8747 120.233 66.546C120.618 66.4327 121.003 66.3307 121.389 66.24C121.785 66.1493 122.205 66.0757 122.647 66.019C123.089 65.9623 123.559 65.917 124.058 65.883C124.556 65.849 125.106 65.8263 125.707 65.815V65.339C125.707 64.7497 125.542 64.319 125.214 64.047C124.896 63.775 124.324 63.639 123.497 63.639C122.431 63.639 121.36 63.8713 120.284 64.336L119.944 63.078ZM125.707 66.954C124.721 66.9767 123.888 67.0333 123.208 67.124C122.539 67.2033 121.927 67.3167 121.372 67.464C121.145 67.736 121.032 68.076 121.032 68.484C121.032 68.9487 121.173 69.3 121.457 69.538C121.751 69.7647 122.165 69.878 122.698 69.878C123.264 69.878 123.786 69.793 124.262 69.623C124.749 69.453 125.231 69.164 125.707 68.756V66.954ZM138.789 62.5V71H137.225V63.758H133.757V65.118C133.757 65.6507 133.74 66.172 133.706 66.682C133.684 67.1807 133.633 67.6567 133.553 68.11C133.474 68.552 133.355 68.96 133.196 69.334C133.038 69.708 132.834 70.0367 132.584 70.32C132.358 70.5807 132.091 70.7847 131.785 70.932C131.491 71.068 131.128 71.136 130.697 71.136C130.459 71.136 130.255 71.119 130.085 71.085C129.915 71.051 129.74 70.9887 129.558 70.898L129.762 69.708C129.966 69.776 130.159 69.81 130.34 69.81C130.612 69.81 130.828 69.7873 130.986 69.742C131.156 69.6967 131.315 69.5947 131.462 69.436C131.802 69.0733 132.018 68.5123 132.108 67.753C132.21 66.9937 132.261 66.0587 132.261 64.948V62.5H138.789ZM150.746 66.75C150.746 67.43 150.621 68.042 150.372 68.586C150.123 69.13 149.783 69.5947 149.352 69.98C148.933 70.3653 148.434 70.66 147.856 70.864C147.278 71.068 146.66 71.17 146.003 71.17C145.346 71.17 144.728 71.068 144.15 70.864C143.572 70.66 143.068 70.3653 142.637 69.98C142.218 69.5947 141.883 69.13 141.634 68.586C141.385 68.042 141.26 67.43 141.26 66.75C141.26 66.07 141.385 65.458 141.634 64.914C141.883 64.37 142.218 63.9053 142.637 63.52C143.068 63.1347 143.572 62.84 144.15 62.636C144.728 62.432 145.346 62.33 146.003 62.33C146.66 62.33 147.278 62.432 147.856 62.636C148.434 62.84 148.933 63.1347 149.352 63.52C149.783 63.9053 150.123 64.37 150.372 64.914C150.621 65.458 150.746 66.07 150.746 66.75ZM142.807 66.75C142.807 67.736 143.09 68.5123 143.657 69.079C144.224 69.6457 145.006 69.929 146.003 69.929C147 69.929 147.782 69.6457 148.349 69.079C148.916 68.5123 149.199 67.736 149.199 66.75C149.199 65.764 148.916 64.9877 148.349 64.421C147.782 63.8543 147 63.571 146.003 63.571C145.006 63.571 144.224 63.8543 143.657 64.421C143.09 64.9877 142.807 65.764 142.807 66.75ZM154.77 62.5V65.951H159.496V62.5H161.06V71H159.496V67.209H154.77V71H153.206V62.5H154.77ZM169.49 62.5H171.054V69.742H174.709V62.5H176.273V69.742H179.928V62.5H181.492V71H169.49V62.5ZM183.871 63.741V62.5H191.504V63.741H188.478V71H186.897V63.741H183.871ZM202.606 66.75C202.606 67.43 202.481 68.042 202.232 68.586C201.982 69.13 201.642 69.5947 201.212 69.98C200.792 70.3653 200.294 70.66 199.716 70.864C199.138 71.068 198.52 71.17 197.863 71.17C197.205 71.17 196.588 71.068 196.01 70.864C195.432 70.66 194.927 70.3653 194.497 69.98C194.077 69.5947 193.743 69.13 193.494 68.586C193.244 68.042 193.12 67.43 193.12 66.75C193.12 66.07 193.244 65.458 193.494 64.914C193.743 64.37 194.077 63.9053 194.497 63.52C194.927 63.1347 195.432 62.84 196.01 62.636C196.588 62.432 197.205 62.33 197.863 62.33C198.52 62.33 199.138 62.432 199.716 62.636C200.294 62.84 200.792 63.1347 201.212 63.52C201.642 63.9053 201.982 64.37 202.232 64.914C202.481 65.458 202.606 66.07 202.606 66.75ZM194.667 66.75C194.667 67.736 194.95 68.5123 195.517 69.079C196.083 69.6457 196.865 69.929 197.863 69.929C198.86 69.929 199.642 69.6457 200.209 69.079C200.775 68.5123 201.059 67.736 201.059 66.75C201.059 65.764 200.775 64.9877 200.209 64.421C199.642 63.8543 198.86 63.571 197.863 63.571C196.865 63.571 196.083 63.8543 195.517 64.421C194.95 64.9877 194.667 65.764 194.667 66.75ZM205.066 62.823C205.394 62.7437 205.706 62.6757 206.001 62.619C206.307 62.551 206.613 62.5 206.919 62.466C207.225 62.4207 207.542 62.3867 207.871 62.364C208.199 62.3413 208.551 62.33 208.925 62.33C210.455 62.33 211.622 62.721 212.427 63.503C213.231 64.285 213.634 65.373 213.634 66.767C213.634 67.413 213.543 68.008 213.362 68.552C213.18 69.0847 212.908 69.5493 212.546 69.946C212.194 70.3313 211.741 70.6317 211.186 70.847C210.642 71.0623 210.007 71.17 209.282 71.17C208.704 71.17 208.216 71.1133 207.82 71C207.423 70.8753 207.032 70.6657 206.647 70.371V74.91H205.066V62.823ZM206.647 68.909C207.055 69.2603 207.468 69.504 207.888 69.64C208.307 69.776 208.772 69.844 209.282 69.844C210.143 69.844 210.817 69.5777 211.305 69.045C211.803 68.501 212.053 67.7417 212.053 66.767C212.053 65.7017 211.775 64.9027 211.22 64.37C210.676 63.8373 209.911 63.571 208.925 63.571C208.664 63.571 208.432 63.5767 208.228 63.588C208.035 63.5993 207.848 63.622 207.667 63.656C207.497 63.6787 207.327 63.7127 207.157 63.758C206.998 63.792 206.828 63.8373 206.647 63.894V68.909Z" fill="#666972"/>
</svg>
