<svg width="64" height="64" viewBox="0 0 64 64" fill="none" xmlns="http://www.w3.org/2000/svg">
<g clip-path="url(#clip0_125_608)">
<path d="M58.8806 36.122C58.6636 35.905 58.3382 35.7966 58.0129 35.7966C56.0604 35.7966 54.5417 35.2542 53.3485 33.9525C50.0942 30.5897 50.4196 23.9729 50.4196 23.8644C50.4196 11.8237 53.4568 5.96613 53.5653 5.96613C53.6739 5.64075 53.6739 5.31525 53.5653 4.98987C53.4568 4.6645 53.1315 4.4475 52.806 4.339L32.1959 0C31.8705 0 31.6535 1.49012e-08 31.3281 0.217C31.0027 0.434 30.8942 0.759375 30.8942 1.08475C30.8942 4.339 29.8095 7.05087 27.5315 9.11187C20.8061 15.2949 6.16198 14.1018 6.05348 14.1018C5.7281 14.1018 5.4026 14.2102 5.18573 14.4271C4.96885 14.644 4.86035 14.861 4.86035 15.1865V62.9154C4.86035 63.5662 5.29423 64.0001 5.9451 64.0001H30.8942C31.4366 64.0001 31.8705 63.6747 31.979 63.1324L34.257 49.0306L37.4027 63.1324C37.5112 63.6747 37.9451 64.0001 38.4875 64.0001H54.7586C55.301 64.0001 55.7348 63.5662 55.8433 63.0239L59.0976 36.99C59.2061 36.6644 59.0976 36.339 58.8806 36.122ZM53.7823 61.8305H39.3552L35.2332 43.1729C35.1247 42.6305 34.6909 42.3051 34.1485 42.3051C33.6061 42.3051 33.1722 42.6305 33.0637 43.1729L30.0265 61.8305H7.02985V30.3729H8.1146C8.76548 30.3729 9.19935 29.939 9.19935 29.2881C9.19935 28.6372 8.76548 28.2034 8.1146 28.2034H7.02985V16.3796C10.8265 16.4881 22.6502 16.4881 28.9417 10.6305C31.3282 8.461 32.6299 5.64062 32.9554 2.38637L51.0706 6.2915C50.0943 8.67788 48.2502 14.4271 48.2502 23.8644C48.2502 23.973 48.1686 25.8512 48.5781 28.2034H47.1655C46.5146 28.2034 46.0807 28.6372 46.0807 29.2881C46.0807 29.939 46.5146 30.3729 47.1655 30.3729H49.083C49.6081 32.1399 50.4575 33.9523 51.8298 35.3628C53.1316 36.7729 54.8671 37.6408 56.8197 37.8576L53.7823 61.8305Z" fill="white"/>
<path d="M18.9618 28.2034H14.6228C13.972 28.2034 13.5381 28.6372 13.5381 29.2881C13.5381 29.939 13.972 30.3729 14.6228 30.3729H18.9618C19.6127 30.3729 20.0466 29.939 20.0466 29.2881C20.0466 28.6372 19.6127 28.2034 18.9618 28.2034Z" fill="white"/>
<path d="M40.6571 28.2034H36.3181C35.6673 28.2034 35.2334 28.6372 35.2334 29.2881C35.2334 29.939 35.6673 30.3729 36.3181 30.3729H40.6571C41.308 30.3729 41.7419 29.939 41.7419 29.2881C41.7419 28.6372 41.308 28.2034 40.6571 28.2034Z" fill="white"/>
<path d="M29.8095 28.2034H25.4705C24.8196 28.2034 24.3857 28.6372 24.3857 29.2881C24.3857 29.939 24.8196 30.3729 25.4705 30.3729H29.8095C30.4604 30.3729 30.8942 29.939 30.8942 29.2881C30.8942 28.6372 30.4604 28.2034 29.8095 28.2034Z" fill="white"/>
</g>
<defs>
<clipPath id="clip0_125_608">
<rect width="64" height="64" fill="white"/>
</clipPath>
</defs>
</svg>
