<svg width="64" height="56" viewBox="0 0 64 56" fill="none" xmlns="http://www.w3.org/2000/svg">
<path d="M63.6746 12.5189C63.2409 12.0851 62.5901 12.0851 62.1564 12.5189C58.4124 16.0605 55.3292 16.4851 52.1142 13.7072L53.1551 12.8442C55.9748 9.91599 55.9748 5.2527 53.1551 2.43311C50.3354 -0.3866 45.6721 -0.3866 42.744 2.54159L41.9095 3.55073L40.7919 2.43311C37.8638 -0.3866 33.2004 -0.3866 30.3808 2.43311C28.971 3.84291 28.2118 5.6866 28.2118 7.63864C28.2118 9.59069 28.971 11.4344 30.3808 12.8442L32.5229 14.9007L17.217 33.4082L13.5711 29.7623C10.6431 26.9426 5.97965 26.9426 3.16006 29.7623C1.75014 31.1721 0.990945 33.0158 0.990945 34.9679C0.990945 36.9199 1.75014 38.7636 3.15994 40.1734L7.80772 44.7857L0.231873 53.9464C-0.0934258 54.3802 -0.0934258 54.9224 0.340348 55.3562C0.557297 55.5732 0.774121 55.6815 1.09954 55.6815C1.31649 55.6815 1.64179 55.573 1.75027 55.4646L10.9134 47.8673L17.367 54.2717C17.5839 54.4887 17.8008 54.597 18.1262 54.597C18.3431 54.597 18.6684 54.4885 18.8854 54.3801C19.3192 53.9463 19.3192 53.2956 18.8854 52.8618L12.5412 46.5177L26.234 35.1647L29.5133 38.5464C30.9231 39.9562 32.7667 40.6069 34.502 40.6069C36.5625 40.6069 38.5146 39.7394 40.0329 38.5464C42.8526 35.6182 42.8526 30.9549 40.0329 28.1353L37.5672 25.7683L50.4431 15.0928C52.3407 16.8177 54.3203 17.7243 56.3004 17.7243C58.6862 17.7243 61.1806 16.5313 63.6749 14.037C64.1084 13.6034 64.1084 12.9527 63.6746 12.5189ZM31.899 11.3259C30.9229 10.3499 30.3807 9.04844 30.3807 7.63864C30.3807 6.22885 30.9229 4.9274 31.899 3.95138C33.9595 1.89087 37.213 1.89087 39.2735 3.95138L40.5348 5.21271L33.8947 13.2418L31.899 11.3259ZM4.67821 38.6551C3.70219 37.6791 3.15994 36.3777 3.15994 34.9679C3.15994 33.5581 3.70219 32.2566 4.67821 31.2806C6.73872 29.2201 9.99221 29.2201 12.0527 31.2806L15.8425 35.0703L9.16615 43.1432L4.67821 38.6551ZM9.23314 46.4634L9.35274 46.3188L9.37773 46.3436L9.23314 46.4634ZM10.7054 44.6822L42.0641 6.74198L44.7502 9.4281L43.7199 10.4584C43.2862 10.8921 43.2862 11.5429 43.7199 11.9766C43.9369 12.1936 44.1537 12.3019 44.4791 12.3019C44.8046 12.3019 45.0214 12.1935 45.2383 11.9766L48.8171 8.39784C49.2509 7.96407 49.2509 7.31335 48.8171 6.87957C48.3833 6.4458 47.7326 6.4458 47.2988 6.87957L46.2686 7.90983L43.4382 5.07949L44.3707 3.95138C45.3467 2.97536 46.6481 2.43311 48.0579 2.43311C49.4677 2.43311 50.6607 2.97536 51.6367 3.95138C52.6127 4.9274 53.155 6.22885 53.155 7.63864C53.155 9.04844 52.6127 10.3499 51.7452 11.2174L11.0118 44.9888L10.7054 44.6822ZM38.5144 29.7623C40.4664 31.8229 40.4664 35.0763 38.5144 37.0284C36.5624 38.6551 33.2004 39.0889 31.1399 37.0284L27.8973 33.7858L35.9015 27.1493L38.5144 29.7623Z" fill="white"/>
</svg>
