<svg width="64" height="64" viewBox="0 0 64 64" fill="none" xmlns="http://www.w3.org/2000/svg">
<g clip-path="url(#clip0_125_639)">
<path d="M62.9334 0H1.06662C0.426625 0 0 0.426625 0 1.06662V45.8666C0 46.2933 0.213375 46.6133 0.533375 46.8266L31.4667 63.8932C31.68 64 31.7866 64 32 64C32.2134 64 32.32 64 32.5334 63.8934L63.4668 46.8268C63.7868 46.6134 64.0001 46.2934 64.0001 45.8667V1.06662C64 0.426625 63.5734 0 62.9334 0ZM61.8666 45.2266L32 61.6534L2.13337 45.2266V2.13337H61.8667L61.8666 45.2266Z" fill="white"/>
<path d="M6.93352 42.9866L11.0935 45.3333C11.3069 45.4399 11.4135 45.4399 11.6269 45.4399C12.0535 45.4399 12.3735 45.2265 12.5869 45.0133C12.9069 44.4799 12.6935 43.8399 12.1603 43.5199L8.53364 41.4933V37.3333C8.53364 36.6933 8.10702 36.2666 7.46702 36.2666C6.82702 36.2666 6.40039 36.6933 6.40039 37.3333V42.1333C6.40014 42.4534 6.61352 42.88 6.93352 42.9866Z" fill="white"/>
<path d="M7.46702 31.2534C8.10702 31.2534 8.53364 30.72 8.53364 30.1867V19.4134C8.53364 18.7734 8.10702 18.3467 7.46702 18.3467C6.82702 18.3467 6.40039 18.7734 6.40039 19.4134V30.1867C6.40039 30.8266 6.82702 31.2534 7.46702 31.2534Z" fill="white"/>
<path d="M7.46702 13.3334C8.10702 13.3334 8.53364 12.9067 8.53364 12.2667V8.53337H12.267C12.907 8.53337 13.3336 8.10675 13.3336 7.46675C13.3336 6.82675 12.907 6.40012 12.267 6.40012H7.46702C6.82702 6.40012 6.40039 6.82675 6.40039 7.46675V12.2667C6.40039 12.9066 6.82702 13.3334 7.46702 13.3334Z" fill="white"/>
<path d="M18.8801 8.53337H28.6935C29.3335 8.53337 29.7601 8.10675 29.7601 7.46675C29.7601 6.82675 29.3335 6.40012 28.6935 6.40012H18.8801C18.2401 6.40012 17.8135 6.82675 17.8135 7.46675C17.8135 8.10675 18.2401 8.53337 18.8801 8.53337Z" fill="white"/>
<path d="M35.3069 8.53338H45.1202C45.7602 8.53338 46.1869 8.10675 46.1869 7.46675C46.1869 6.82675 45.7602 6.4 45.1202 6.4H35.3069C34.6669 6.4 34.2402 6.82663 34.2402 7.46663C34.2402 8.10663 34.6669 8.53338 35.3069 8.53338Z" fill="white"/>
<path d="M51.7336 8.53337H55.467V12.2667C55.467 12.9067 55.8936 13.3334 56.5336 13.3334C57.1736 13.3334 57.6002 12.9067 57.6002 12.2667V7.46675C57.6002 6.82675 57.1736 6.40012 56.5336 6.40012H51.7336C51.0936 6.40012 50.667 6.82675 50.667 7.46675C50.667 8.10675 51.0936 8.53337 51.7336 8.53337Z" fill="white"/>
<path d="M56.5334 18.3466C55.8934 18.3466 55.4668 18.7733 55.4668 19.4133V30.1866C55.4668 30.8266 55.8934 31.2533 56.5334 31.2533C57.1734 31.2533 57.6 30.7199 57.6 30.1866V19.4133C57.6 18.7734 57.1734 18.3466 56.5334 18.3466Z" fill="white"/>
<path d="M56.5329 36.2666C55.8929 36.2666 55.4663 36.6933 55.4663 37.3333V41.3866L51.8397 43.4133C51.3063 43.7333 51.0931 44.3733 51.4131 44.9066C51.6264 45.2266 51.9464 45.44 52.3731 45.44C52.4797 45.44 52.6931 45.44 52.9064 45.44L57.0664 43.0934C57.3864 42.88 57.5998 42.56 57.5998 42.1334V37.3334C57.5996 36.6934 57.1729 36.2666 56.5329 36.2666Z" fill="white"/>
<path d="M39.8935 51.3066C40.1069 51.6266 40.4269 51.84 40.8535 51.84C40.9602 51.84 41.1735 51.7334 41.3869 51.7334L48.3203 47.8934C48.8537 47.5734 49.0669 46.9334 48.7469 46.4C48.4269 45.8666 47.7869 45.6534 47.2535 45.9734L40.3202 49.8134C39.7868 50.1334 39.5735 50.7734 39.8935 51.3066Z" fill="white"/>
<path d="M26.8798 52.6934C26.5598 53.2268 26.7732 53.8668 27.3065 54.1868L31.4665 56.5334C31.6798 56.64 31.7865 56.64 31.9998 56.64C32.2132 56.64 32.3198 56.64 32.5332 56.5334L36.7998 54.2934C37.3332 53.9734 37.5465 53.3334 37.2265 52.8C36.9065 52.2666 36.2665 52.0534 35.7331 52.3734L31.9998 54.4L28.3732 52.2666C27.8398 51.9466 27.1998 52.16 26.8798 52.6934Z" fill="white"/>
<path d="M15.6795 47.8934L22.6129 51.7334C22.8263 51.84 22.9329 51.84 23.1463 51.84C23.5729 51.84 23.8929 51.6266 24.1063 51.3066C24.4263 50.7732 24.2129 50.1333 23.6797 49.8133L16.7463 45.9733C16.2129 45.6533 15.5729 45.8666 15.2529 46.3999C14.9329 46.9331 15.1462 47.5734 15.6795 47.8934Z" fill="white"/>
</g>
<defs>
<clipPath id="clip0_125_639">
<rect width="64" height="64" fill="white"/>
</clipPath>
</defs>
</svg>
