<svg width="64" height="60" viewBox="0 0 64 60" fill="none" xmlns="http://www.w3.org/2000/svg">
<path d="M42.6662 44.4C42.0262 44.4 41.5996 44.8266 41.5996 45.4666C41.5996 46.1066 42.0262 46.5332 42.6662 46.5332C43.3062 46.5332 43.7329 46.1066 43.7329 45.4666C43.7329 44.8266 43.3062 44.4 42.6662 44.4Z" fill="white"/>
<path d="M42.6662 26.2666C42.0262 26.2666 41.5996 26.6933 41.5996 27.3333C41.5996 27.9733 42.0262 28.3999 42.6662 28.3999C43.3062 28.3999 43.7329 27.9733 43.7329 27.3333C43.7329 26.6933 43.3062 26.2666 42.6662 26.2666Z" fill="white"/>
<path d="M46.9338 44.4C46.2938 44.4 45.8672 44.8266 45.8672 45.4666C45.8672 46.1066 46.2938 46.5332 46.9338 46.5332C47.5738 46.5332 48.0004 46.1066 48.0004 45.4666C48.0004 44.8266 47.5738 44.4 46.9338 44.4Z" fill="white"/>
<path d="M60.8 47.6C62.6134 47.6 64 46.2134 64 44.4V31.6C64 29.7866 62.6134 28.4 60.8 28.4C58.9866 28.4 57.6 29.7866 57.6 31.6V36.9334H56.5334V31.7067C56.5334 31.2801 56.5334 30.8534 56.5334 30.5334C56.2134 24.9867 53.3334 19.9734 48.7467 16.6667C45.9193 14.6997 42.7374 13.514 39.4668 13.1872V9.2H40.5334H42.6668C43.3068 9.2 43.7334 8.77337 43.7334 8.13337C43.7334 7.49337 43.3068 7.06675 42.6668 7.06675H41.6V2.8H42.6666C43.3066 2.8 43.7332 2.37337 43.7332 1.73337C43.7332 1.09337 43.3066 0.666748 42.6666 0.666748H40.5332H36.2666H34.1333C33.4933 0.666748 33.0666 1.09337 33.0666 1.73337C33.0666 2.37337 33.4933 2.8 34.1333 2.8H35.1999V7.06662H34.1333C33.4933 7.06662 33.0666 7.49325 33.0666 8.13325C33.0666 8.77325 33.4933 9.19987 34.1333 9.19987H36.2666H37.3332V13.0966C35.6226 13.1224 33.9036 13.3829 32.2132 13.8932L21.0133 17.1999C19.7332 17.5199 18.4533 17.7332 17.0666 17.7332H16.32C14.1866 17.7332 12.16 17.1999 10.4534 16.1332C9.49337 15.6 8.74662 14.7466 8 13.4666C7.14663 12.1866 5.76 11.3332 4.26662 11.3332C1.92 11.3334 0 13.2534 0 15.6V40.1334C0 42.1121 1.36513 43.7874 3.2 44.2641V47.6C3.2 48.24 3.62663 48.6666 4.26662 48.6666C4.90662 48.6666 5.33325 48.24 5.33325 47.6V44.264C7.16813 43.7872 8.53325 42.112 8.53325 40.1332V38C8.53325 35.0134 10.8799 32.6666 13.8666 32.6666H28.8C29.8666 32.6666 31.04 32.9866 32 33.52C34.3466 34.9066 35.52 37.7866 34.7734 40.56L32.2134 50.8H4.26662C1.92 50.8 0 52.72 0 55.0666C0 57.4132 1.92 59.3332 4.26662 59.3332H59.7332C62.0799 59.3332 63.9999 57.4132 63.9999 55.0666C63.9999 52.72 62.0799 50.8 59.7332 50.8H56.5332V39.0666H57.5999V44.4C57.6 46.2134 58.9866 47.6 60.8 47.6ZM37.3334 2.8H39.4668V7.06662H37.3334V2.8ZM59.7334 52.9334C60.9067 52.9334 61.8667 53.8934 61.8667 55.0667C61.8667 56.2401 60.9067 57.2001 59.7334 57.2001H4.26662C3.09325 57.2001 2.13325 56.2401 2.13325 55.0667C2.13325 53.8934 3.09325 52.9334 4.26662 52.9334H31.68H56.5334H59.7334ZM34.4534 50.8L36.9067 41.0934C37.8667 37.36 36.2668 33.52 33.1734 31.7067C31.8934 30.9601 30.4 30.5334 28.9067 30.5334H13.9734C9.81338 30.5334 6.50675 33.84 6.50675 38V40.1334C6.50675 41.3067 5.54675 42.2667 4.37337 42.2667C3.2 42.2667 2.24 41.3067 2.24 40.1334V15.6C2.24 14.4266 3.2 13.4666 4.37337 13.4666C5.12 13.4666 5.76 13.8932 6.18675 14.5332C7.14675 16.1332 8.10675 17.1999 9.38675 17.9466C11.5201 19.2266 13.8668 19.8666 16.3201 19.8666H17.0667C18.6667 19.8666 20.1601 19.6532 21.6534 19.2266L32.8534 15.92C37.8667 14.4266 43.2 15.3866 47.4668 18.3734C51.6268 21.2534 54.0801 25.7334 54.4001 30.64C54.4001 30.96 54.4001 31.28 54.4001 31.6V50.8H34.4534ZM61.8666 39.0666V41.2H59.7332V39.0666H61.8666ZM59.7334 36.9334V34.8H61.8667V36.9334H59.7334ZM60.8 45.4666C60.16 45.4666 59.7334 45.04 59.7334 44.4V43.3334H61.8667V44.4C61.8666 45.04 61.44 45.4666 60.8 45.4666ZM60.8 30.5334C61.44 30.5334 61.8666 30.96 61.8666 31.6V32.6666H59.7332V31.6C59.7334 30.96 60.16 30.5334 60.8 30.5334Z" fill="white"/>
<path d="M42.6664 22C39.6798 22 37.333 24.3466 37.333 27.3334C37.333 30.32 39.6796 32.6668 42.6664 32.6668C45.653 32.6668 47.9998 30.3201 47.9998 27.3334C47.9998 24.3466 45.6531 22 42.6664 22ZM42.6664 30.5334C40.853 30.5334 39.4664 29.1468 39.4664 27.3334C39.4664 25.52 40.853 24.1334 42.6664 24.1334C44.4798 24.1334 45.8664 25.52 45.8664 27.3334C45.8664 29.1466 44.4798 30.5334 42.6664 30.5334Z" fill="white"/>
<path d="M14.9338 24.1334H21.3338C21.9738 24.1334 22.4004 23.7067 22.4004 23.0667C22.4004 22.4267 21.9738 22 21.3338 22H14.9338C14.2938 22 13.8672 22.4266 13.8672 23.0666C13.8672 23.7066 14.2938 24.1334 14.9338 24.1334Z" fill="white"/>
<path d="M25.6004 26.2666H14.9338C14.2938 26.2666 13.8672 26.6933 13.8672 27.3333C13.8672 27.9733 14.2938 28.3999 14.9338 28.3999H25.6004C26.2404 28.3999 26.6671 27.9733 26.6671 27.3333C26.6671 26.6933 26.2404 26.2666 25.6004 26.2666Z" fill="white"/>
</svg>
